<?xml version="1.0" encoding="UTF-8"?>
<svg width="540px" height="120px" viewBox="0 0 540 120" version="1.1" xmlns="http://www.w3.org/2000/svg" xmlns:xlink="http://www.w3.org/1999/xlink">
    <!-- Generator: Sketch 52.6 (67491) - http://www.bohemiancoding.com/sketch -->
    <title>Group 16</title>
    <desc>Created with Sketch.</desc>
    <g id="Page-1" stroke="none" stroke-width="1" fill="none" fill-rule="evenodd">
        <g id="Homepage-2" transform="translate(-164.000000, -361.000000)">
            <g id="Group-16" transform="translate(164.697158, 361.035049)">
                <polygon id="Fill-1" fill="#FEFEFE" points="418.351653 76.3912229 403.443134 50.4869849 389.887022 50.4869849 412.405277 89.5415361 412.405277 119.021688 424.298029 119.021688 424.298029 89.5415361 446.816284 50.4869849 433.260172 50.4869849"></polygon>
                <polygon id="Fill-2" fill="#FEFEFE" points="0 50.3901095 0 50.3957862 0 62.3091713 0 78.7427565 0 90.6618183 0 119.008789 11.8931421 119.008789 11.8931421 90.6618183 38.7977381 90.6618183 38.7977381 78.7427565 11.8931421 78.7427565 11.8931421 62.3091713 44.706612 62.3091713 44.706612 50.3901095"></polygon>
                <polygon id="Fill-3" fill="#FEFEFE" points="219.509686 50.4870045 207.616348 50.4870045 185.794806 50.4870045 185.794806 62.4060663 207.616348 62.4060663 207.616348 119.121735 219.509686 119.121735 219.509686 62.4060663 241.331228 62.4060663 241.331228 50.4870045"></polygon>
                <path d="M66.8494588,94.5410628 L74.9859774,76.5724263 L83.122496,94.5410628 L66.8494588,94.5410628 Z M74.9859774,50.6080938 L69.0026859,63.3592781 L42.8936354,119.00088 L55.7731524,119.00088 L61.8076182,105.674199 L88.1637507,105.674199 L94.1988025,119.00088 L107.078319,119.00088 L80.9692689,63.3592781 L74.9859774,50.6080938 Z" id="Fill-4" fill="#FEFEFE"></path>
                <g id="Group-15" transform="translate(109.770830, 0.009004)">
                    <path d="M241.341111,84.1224639 L236.188523,84.1224639 L236.188523,61.1143094 L241.341111,61.1143094 L246.027662,61.1143094 C254.917732,61.1143094 260.193373,65.1279149 260.193373,72.4707931 L260.193373,72.6671277 C260.193373,79.618511 254.72241,84.1224639 246.125909,84.1224639 L241.341111,84.1224639 Z M272.404889,71.9816202 L272.404889,71.7854813 C272.404889,65.8134225 270.35362,60.722423 266.738605,57.0018513 C262.342693,52.6936458 255.601553,50.1481461 247.004466,50.1481461 L241.341111,50.1481461 L224.295186,50.1481461 L224.295186,118.683241 L236.188523,118.683241 L236.188523,94.79344 L241.341111,94.79344 L243.390037,94.79344 L243.585358,94.79344 L260.389085,118.683241 L274.55421,118.683241 L256.090248,92.7377004 C265.66414,89.9966489 272.404889,83.2406217 272.404889,71.9816202 Z" id="Fill-5" fill="#FEFEFE"></path>
                    <path d="M379.629778,24.5754847 C382.811179,22.3870283 384.421607,19.0313299 384.421607,14.583948 C384.421607,6.2039999 378.437339,0.789625613 369.176548,0.789625613 C360.406796,0.789625613 354.204158,6.32399309 353.373455,14.888531 L353.313882,15.5092461 L363.039929,15.5092461 L363.067664,14.9723109 C363.270604,11.022519 366.17621,9.25472381 368.965991,9.25472381 C372.377872,9.25472381 374.581882,11.515411 374.581882,15.0149838 C374.581882,17.9042161 373.050755,20.991349 368.755239,20.991349 L366.926246,20.991349 L366.926246,28.881537 L368.685704,28.881537 C374.022481,28.881537 375.916711,32.6044576 375.916711,35.792792 C375.916711,39.3037181 373.767781,42.8471384 368.965991,42.8471384 C364.999201,42.8471384 362.293214,40.4756581 361.729515,36.5035509 L361.659981,36.0171186 L351.424144,36.0171186 L351.476099,36.630591 C352.25055,45.8418785 359.250882,52.0312169 368.896456,52.0312169 C379.232689,52.0312169 386.177745,45.6208796 386.177745,36.0799535 C386.177745,29.2325122 382.430497,26.0199051 379.629778,24.5754847" id="Fill-7" fill="#FECF09"></path>
                    <path d="M402.955376,18.5615947 C402.955376,14.2267676 406.462183,10.7129052 410.787388,10.7129052 C415.112789,10.7129052 418.619595,14.2267676 418.619595,18.5615947 C418.619595,22.8964219 415.112789,26.4102842 410.787388,26.4102842 C406.462183,26.4102842 402.955376,22.8964219 402.955376,18.5615947 Z M425.984788,28.8438165 C427.965351,25.9095623 429.122242,22.37084 429.122242,18.5615947 C429.122242,8.41346002 420.912868,0.186782211 410.787388,0.186782211 C400.660931,0.186782211 392.45273,8.41346002 392.45273,18.5615947 C392.45273,28.1516535 399.783546,36.0244199 409.136138,36.8612403 L397.796538,52.0310799 L409.521703,52.0310799 L425.478514,29.5569244 C425.65196,29.3243764 425.820132,29.0877178 425.98264,28.8469484 L425.984788,28.8438165 Z" id="Fill-9" fill="#FECF09"></path>
                    <path d="M174.151578,108.20304 C161.251747,108.20304 150.794416,97.7233095 150.794416,84.7953653 C150.794416,71.8680084 161.251747,61.3876902 174.151578,61.3876902 C187.050432,61.3876902 197.507959,71.8680084 197.507959,84.7953653 C197.507959,97.7233095 187.050432,108.20304 174.151578,108.20304 M174.151578,50.3810072 C155.185835,50.3810072 139.811668,65.78868 139.811668,84.7953653 C139.811668,103.802051 155.185835,119.209919 174.151578,119.209919 C193.116344,119.209919 208.490511,103.802051 208.490511,84.7953653 C208.490511,65.78868 193.116344,50.3810072 174.151578,50.3810072" id="Fill-11" fill="#FEFEFE"></path>
                    <path d="M34.507769,108.20304 C21.6079386,108.20304 11.1504115,97.7233095 11.1504115,84.7953653 C11.1504115,71.8680084 21.6079386,61.3876902 34.507769,61.3876902 C43.5146414,61.3876902 51.3175505,66.5051157 55.2144149,73.9901064 L67.1099008,73.9901064 C62.5876161,60.2789767 49.7047787,50.381203 34.507769,50.381203 C15.5418307,50.381203 0.167859522,65.78868 0.167859522,84.7953653 C0.167859522,103.802051 15.5418307,119.210115 34.507769,119.210115 C49.9850654,119.210115 63.0669357,108.946685 67.3563969,94.8413199 L55.5794713,94.8413199 C51.8249964,102.73464 43.813679,108.20304 34.507769,108.20304" id="Fill-13" fill="#FEFEFE"></path>
                </g>
            </g>
        </g>
    </g>
</svg>