<svg xmlns="http://www.w3.org/2000/svg" viewBox="0 0 1920 234.83"><defs><style>.cls-1{fill:#fff;}</style></defs><title>Statsdrone-Horizontal-Logo-White-RGB</title><g id="Layer_2" data-name="Layer 2"><g id="Horizontal_logo" data-name="Horizontal logo"><path class="cls-1" d="M151.3,137.48a2.34,2.34,0,0,1-.22-.23c-.28-.28-.57-.6-.88-1a29.65,29.65,0,0,1-.06-38.37c.31-.37.6-.7.87-1a9.7,9.7,0,0,0-13.43-14l-.23.22c-.28.27-.61.56-1,.87a29.83,29.83,0,0,1-38.45,0c-.36-.31-.69-.6-1-.87l-.23-.22a9.65,9.65,0,0,0-7.2-2.65A9.71,9.71,0,0,0,83.3,96.93c1.16,1.21,2.91,3.25,4.84,5.57a22.79,22.79,0,0,1,0,29.14c-1.94,2.34-3.71,4.39-4.89,5.61l-.22.23A9.7,9.7,0,0,0,96.73,151.2L97,151l.25-.25a28.36,28.36,0,0,1,39.89,0l.25.25.23.22a9.7,9.7,0,0,0,13.72-13.72Z"/><path class="cls-1" d="M158.4,59a40.25,40.25,0,1,1,75.21-10.39,7.17,7.17,0,0,1-9.94,5.12h0a7.14,7.14,0,0,1-4.09-8A25.93,25.93,0,1,0,202,65.3a7.12,7.12,0,0,1,8.3,3.26h0a7.15,7.15,0,0,1-4,10.39A40.31,40.31,0,0,1,158.4,59Z"/><path class="cls-1" d="M233.29,184.59a40.62,40.62,0,1,1-76-9.51,7.22,7.22,0,0,1,11-2.4h0a7.2,7.2,0,0,1,1.91,8.83,26.17,26.17,0,1,0,22.2-14.44,7.19,7.19,0,0,1-7.24-5.35h0a7.22,7.22,0,0,1,6.6-9.08A40.67,40.67,0,0,1,233.29,184.59Z"/><path class="cls-1" d="M31.08,154.73A40.62,40.62,0,1,1,23.33,231a7.22,7.22,0,0,1-2.66-11h0a7.22,7.22,0,0,1,8.79-2.12A26.16,26.16,0,1,0,14.51,196a7.18,7.18,0,0,1-5.18,7.35h0A7.21,7.21,0,0,1,.1,197,40.67,40.67,0,0,1,31.08,154.73Z"/><path class="cls-1" d="M68,70.61A40.62,40.62,0,1,1,38.22,0a7.23,7.23,0,0,1,7.59,8.35h0a7.22,7.22,0,0,1-6.69,6.07,26.17,26.17,0,1,0,23.6,12,7.18,7.18,0,0,1,1-8.94h0A7.22,7.22,0,0,1,74.9,18.66,40.68,40.68,0,0,1,68,70.61Z"/><path class="cls-1" d="M587.05,46.54a13.44,13.44,0,0,0,3.89-9.86,13.32,13.32,0,0,0-13.75-13.75H451.25A13.34,13.34,0,0,0,437.5,36.68a13.34,13.34,0,0,0,13.75,13.76h48.39V197A14.7,14.7,0,1,0,529,197V50.44h48.16A13.42,13.42,0,0,0,587.05,46.54Z"/><path class="cls-1" d="M736.47,191.11,670.11,32.77C667.7,26.34,662.94,23,656.27,23c-6.29,0-11,3.33-13.8,9.71l-66.16,158A18.16,18.16,0,0,0,575,197a14.6,14.6,0,0,0,4.07,10.26,13.64,13.64,0,0,0,10.36,4.42,14.16,14.16,0,0,0,8-2.41,15.59,15.59,0,0,0,5.64-6.63l12.76-31.46H697l12.57,31.42a13.82,13.82,0,0,0,5.55,6.72,14.87,14.87,0,0,0,8,2.36,14.29,14.29,0,0,0,10.45-4.23,14,14,0,0,0,4.27-10.2A17.15,17.15,0,0,0,736.47,191.11ZM626,146.05,656.76,71.2l30,74.85Z"/><path class="cls-1" d="M860.62,22.93h-126a13.34,13.34,0,0,0-13.75,13.75,13.34,13.34,0,0,0,13.75,13.76h48.4V197a14.7,14.7,0,1,0,29.39,0V50.44h48.16a13.34,13.34,0,0,0,13.75-13.76,13.34,13.34,0,0,0-13.75-13.75Z"/><path class="cls-1" d="M432.94,157.47c0,11.56-3.22,21.6-9.46,29.9a56.54,56.54,0,0,1-24.86,18.48,88.26,88.26,0,0,1-32.78,6.05A85.46,85.46,0,0,1,324,201.48,65.26,65.26,0,0,1,309,190.25c-.33-.34-.72-.67-1-1s-.77-.86-1.11-1.29a13.77,13.77,0,0,1,10.95-22.13,13.4,13.4,0,0,1,9.31,3.6,50.32,50.32,0,0,0,5.42,5.37A47.21,47.21,0,0,0,340,179.5a55.77,55.77,0,0,0,25.82,5.95c11,0,20.35-2.5,27.93-7.54,7.3-4.84,10.9-11.32,10.9-19.72,0-8.11-3.07-14.88-9.36-20.69S379,128,365.84,126.7c-19.44-1.87-35-7.68-46.22-17.23-11.38-9.7-17.18-22.08-17.18-36.72a42.58,42.58,0,0,1,8.92-26.92c5.86-7.44,13.92-13.2,24.05-17.09a93.53,93.53,0,0,1,33.65-5.81c13.58,0,25.19,2.83,34.6,8.4,1.15.67,2.31,1.44,3.46,2.21.57.38,1.15.77,1.68,1.15a1.85,1.85,0,0,0,.14.14A13.2,13.2,0,0,1,413.69,45,13.41,13.41,0,0,1,400.3,58.45a13.26,13.26,0,0,1-6.43-1.63c-.38-.19-.72-.43-1.1-.67-.92-.53-1.88-1.06-2.93-1.68-5.81-3.36-13.34-5.09-22.37-5.09-11.18,0-20.25,2.16-27.07,6.43-6.53,4.08-9.69,9.89-9.69,17.66,0,7.3,2.88,13.25,8.83,18.19s17.18,8.4,33.21,10c18.86,1.88,33.74,7.68,44.21,17.28C427.56,128.72,432.94,141.68,432.94,157.47Z"/><path class="cls-1" d="M1019,157.47c0,11.56-3.22,21.6-9.45,29.9a56.63,56.63,0,0,1-24.87,18.48,88.22,88.22,0,0,1-32.78,6.05,85.46,85.46,0,0,1-41.8-10.42,65.26,65.26,0,0,1-15.08-11.23c-.33-.34-.72-.67-1-1s-.77-.86-1.11-1.29a13.77,13.77,0,0,1,11-22.13,13.4,13.4,0,0,1,9.31,3.6,50.32,50.32,0,0,0,5.42,5.37,47.21,47.21,0,0,0,7.54,4.71,55.77,55.77,0,0,0,25.82,5.95c11,0,20.35-2.5,27.94-7.54,7.29-4.84,10.89-11.32,10.89-19.72,0-8.11-3.07-14.88-9.36-20.69s-16.27-9.46-29.47-10.8c-19.44-1.87-35-7.68-46.22-17.23-11.38-9.7-17.18-22.08-17.18-36.72a42.58,42.58,0,0,1,8.92-26.92c5.86-7.44,13.92-13.2,24-17.09a93.53,93.53,0,0,1,33.65-5.81c13.58,0,25.19,2.83,34.6,8.4,1.15.67,2.31,1.44,3.46,2.21.57.38,1.15.77,1.68,1.15l.14.14A13.2,13.2,0,0,1,999.79,45,13.41,13.41,0,0,1,986.4,58.45,13.26,13.26,0,0,1,980,56.82c-.38-.19-.72-.43-1.1-.67-.91-.53-1.87-1.06-2.93-1.68-5.81-3.36-13.34-5.09-22.37-5.09-11.18,0-20.25,2.16-27.07,6.43-6.53,4.08-9.69,9.89-9.69,17.66,0,7.3,2.88,13.25,8.83,18.19s17.18,8.4,33.21,10c18.87,1.88,33.74,7.68,44.21,17.28C1013.66,128.72,1019,141.68,1019,157.47Z"/><path class="cls-1" d="M1166.48,35.13C1152.36,27.11,1136,23,1117.93,23h-43a13.73,13.73,0,0,0-9.85,3.88,13.36,13.36,0,0,0-4,10v161a13.71,13.71,0,0,0,13.88,13.88h43c18.1,0,34.43-4.07,48.55-12.09a85.65,85.65,0,0,0,33.15-33.64c7.86-14.27,11.84-30.68,11.84-48.77s-4-34.45-11.84-48.64A85.87,85.87,0,0,0,1166.48,35.13Zm-48.55,151.75h-29.16V48h29.16c12.83,0,24.45,3,34.55,8.83a61.88,61.88,0,0,1,23.69,24.61c5.64,10.52,8.5,22.6,8.5,35.9s-2.87,25.44-8.51,36a61.46,61.46,0,0,1-23.68,24.73C1142.39,183.91,1130.76,186.88,1117.93,186.88Z"/><path class="cls-1" d="M1327.49,133.4a54.55,54.55,0,0,0,31.19-50.35c0-11.62-2.67-22.12-7.93-31.2a55.15,55.15,0,0,0-22.24-21.26A68.08,68.08,0,0,0,1296.29,23h-42.8a13.73,13.73,0,0,0-9.85,3.88,13.33,13.33,0,0,0-4,10v161a14,14,0,0,0,23.89,9.85,13.76,13.76,0,0,0,3.87-9.85v-57.7h32.36l40.47,64.93a13.5,13.5,0,0,0,12,6.65,13.2,13.2,0,0,0,9.75-3.66,12.29,12.29,0,0,0,3.66-9,16.19,16.19,0,0,0-2.61-8.65Zm4.39-50.35c0,9.18-3.35,16.75-10,22.53s-15.29,8.78-25.64,8.78h-28.92V48.9h28.92c10.33,0,18.94,3.22,25.59,9.56S1331.88,73.07,1331.88,83.05Z"/><path class="cls-1" d="M1734.35,23a13.68,13.68,0,0,0-9.84,3.87,13.37,13.37,0,0,0-4,10V162.29L1619.59,28.07a15.34,15.34,0,0,0-4.74-3.56A13.06,13.06,0,0,0,1609,23a13.28,13.28,0,0,0-9.74,3.89,13.54,13.54,0,0,0-3.88,10V197.68a13.54,13.54,0,0,0,3.88,10,14.27,14.27,0,0,0,19.73-.14,13.68,13.68,0,0,0,3.87-9.84V72.54L1723.59,206.6a10.08,10.08,0,0,0,4.86,3.77,16.15,16.15,0,0,0,5.9,1.18,13.24,13.24,0,0,0,9.73-3.89,13.57,13.57,0,0,0,3.89-10V36.9a13.58,13.58,0,0,0-3.89-10A13.27,13.27,0,0,0,1734.35,23Z"/><path class="cls-1" d="M1916.19,189.21a14,14,0,0,0-9.82-3.49h-93.48V129.37h66.65a13.72,13.72,0,0,0,9.69-3.61,13,13,0,0,0,0-18.6,13.76,13.76,0,0,0-9.69-3.61h-66.65V48.87h93.48a13.92,13.92,0,0,0,9.82-3.5,12,12,0,0,0,3.81-9.18,12.68,12.68,0,0,0-3.79-9.52,13.64,13.64,0,0,0-9.84-3.63H1799a13.68,13.68,0,0,0-9.84,3.87,13.37,13.37,0,0,0-4,10V197.68A13.68,13.68,0,0,0,1799,211.55h107.34a13.69,13.69,0,0,0,9.85-3.64,12.67,12.67,0,0,0,3.78-9.51,12,12,0,0,0-3.81-9.19Z"/><path class="cls-1" d="M1442.51,189.15h0a14.55,14.55,0,0,1,16.73-8.22,65.24,65.24,0,1,0-47.82-46,14.55,14.55,0,0,1-7.58,17h0c-8.85,4.34-17.93,0-20.55-9.47A94.54,94.54,0,0,1,1400,59.18C1423.34,29,1463.74,16,1500.4,26.78a94.36,94.36,0,0,1-47.67,182.53A14.65,14.65,0,0,1,1442.51,189.15Z"/></g></g></svg>